<svg width="62" height="28" viewBox="0 0 62 28" fill="none" xmlns="http://www.w3.org/2000/svg">
<path d="M9.88679 0.405065L8.78234 4.50316H15.4381L16.5426 0.405065H9.88679ZM4.19014 27.2316C7.85227 27.2316 9.74146 25.7784 10.6425 22.3488L15.0603 5.782H8.43356L3.78324 23.1916C3.23101 25.168 2.79505 25.4877 1.45808 25.4877H0.993046L0.528013 27.2316H4.19014ZM18.6288 22.2906C20.518 22.2906 22.1166 21.4768 23.1338 20.2561L22.756 22H28.8886L33.2192 5.782H26.5925L23.3082 18.0182C22.9595 19.3261 22.2038 20.1108 21.2447 20.1108C20.3146 20.1108 19.9368 19.5586 20.2855 18.2216L23.5989 5.782H16.9722L13.9495 17.059C12.9903 20.634 14.6761 22.2906 18.5417 22.2906H18.6288ZM37.6965 17.4369H31.5639L31.4186 17.96C30.6629 20.7502 32.5521 22.2906 38.1906 22.2906H38.6557C43.5094 22.2906 46.1543 20.5177 46.8809 17.7856L47.0844 17.0009C47.7819 14.4723 46.7647 12.5831 43.5676 11.624L40.7774 10.7811C39.8764 10.4905 39.702 9.90916 39.9345 9.00816L40.0508 8.63032C40.3123 7.64213 40.8064 7.23523 41.7656 7.23523C42.841 7.23523 43.2769 7.72932 42.9863 8.8919L42.6084 10.2579H48.5667L48.6539 9.82197C49.4386 7.00271 47.5494 5.49136 42.1434 5.49136H41.9109C37.3478 5.49136 34.4704 7.29335 33.7438 10.0254L33.5403 10.8102C32.8718 13.3097 33.9472 15.1989 37.028 16.0999L39.5567 16.8846C40.5739 17.2625 40.8355 17.7856 40.5449 18.8029L40.4577 19.1226C40.1961 20.0527 39.6439 20.5468 38.6557 20.5468C37.464 20.5468 37.028 20.0527 37.3187 19.0064L37.6965 17.4369ZM52.9754 22H56.9572L57.4223 20.2561H56.4922C55.3005 20.2561 55.068 19.9655 55.4749 18.4251L58.4104 7.52587H60.8519L61.2878 5.782H58.8755L60.0381 1.45139H53.4114L52.2488 5.782H50.5921L50.1271 7.52587H51.7837L49.0807 17.6113C48.2379 20.7502 49.2261 22 52.9754 22Z" fill="white"/>
</svg>
